<svg xmlns="http://www.w3.org/2000/svg" width="25.655" height="25.555" viewBox="0 0 25.655 25.555">
  <g id="arrow10" transform="translate(25.655 25.555) rotate(180)">
    <path id="Path_17103" data-name="Path 17103" d="M24.9,8.49A12.834,12.834,0,0,0,8.522.748,12.76,12.76,0,0,0,.751,17.068a.522.522,0,0,0,.983-.349A11.721,11.721,0,0,1,8.873,1.728,11.789,11.789,0,0,1,23.921,8.839,11.721,11.721,0,0,1,16.782,23.83a11.787,11.787,0,0,1-10-.979.52.52,0,1,0-.535.893,12.843,12.843,0,0,0,18.159-5.49A12.645,12.645,0,0,0,24.9,8.49Z" transform="translate(0 0)" fill="#fff"/>
    <path id="Path_17104" data-name="Path 17104" d="M14.039.52A.521.521,0,0,0,13.517,0h-13a.52.52,0,1,0,0,1.04h13A.521.521,0,0,0,14.039.52Z" transform="translate(4.528 12.259)" fill="#fff"/>
    <path id="Path_17105" data-name="Path 17105" d="M.153,11.762a.521.521,0,0,0,.738.735l5.827-5.8a.518.518,0,0,0,0-.735L.891.152A.521.521,0,0,0,.153.887L5.611,6.325Z" transform="translate(14.256 6.454)" fill="#fff"/>
  </g>
</svg>
