<svg xmlns="http://www.w3.org/2000/svg" viewBox="0 0 135.49 101.03"><title>chat</title><path d="M22.28,101c-2.18-.87-2.57-1.45-2.57-3.82,0-3.47,0-6.93,0-10.39,0-.83-.19-1.19-1.05-1.34a22,22,0,0,1-14-8.57A22,22,0,0,1,.09,63.48C0,58.22-.07,53,.1,47.71c.32-9.66,5-16.59,13.74-20.66a21.83,21.83,0,0,1,9.39-1.82c8.42,0,16.84,0,25.26,0h1.2c0-1.35-.07-2.6,0-3.83A22,22,0,0,1,58.2,4.93a21.7,21.7,0,0,1,12-4.8A3.38,3.38,0,0,0,70.64,0h43.89a45.19,45.19,0,0,1,6.72,1.66,21.76,21.76,0,0,1,13.86,17.28,32,32,0,0,1,.35,5.08q.06,6.81,0,13.61a22.54,22.54,0,0,1-10,19.18,21.64,21.64,0,0,1-8.78,3.55c-.29,0-.57.12-.9.19v10c0,.75,0,1.49,0,2.24a2.82,2.82,0,0,1-1.61,2.77,2.91,2.91,0,0,1-3.27-.34l-8.43-6.36Q97.32,64.94,92.14,61a1.5,1.5,0,0,0-.79-.34c-1.79,0-3.58,0-5.48,0,0,.64,0,1.23,0,1.82a22.39,22.39,0,0,1-5,14.93,22,22,0,0,1-14.5,8.17,27.64,27.64,0,0,1-3.75.21c-5.88,0-11.76,0-17.64,0a2.8,2.8,0,0,0-1.54.5c-6.12,4.51-12.22,9.06-18.33,13.58A19,19,0,0,1,23.17,101ZM85.86,54.75c2.18,0,4.23,0,6.28,0a3.93,3.93,0,0,1,2.49.83c3.36,2.53,6.74,5,10.11,7.54l5.14,3.81v-1c0-2.63,0-5.26,0-7.89a2.92,2.92,0,0,1,2.87-3.21c.42-.05.83-.1,1.25-.11a14.47,14.47,0,0,0,5.68-1.42c6.47-3.15,9.71-8.41,9.84-15.55.1-5,.12-10,0-15a18.23,18.23,0,0,0-1-5.59C126,10.06,120,5.94,112.36,5.93q-19.85,0-39.68,0a16.15,16.15,0,0,0-4,.41c-7,1.79-11.37,6.24-12.82,13.36a41.36,41.36,0,0,0-.38,5.52c2.63,0,5,0,7.4,0a22.25,22.25,0,0,1,16.24,6.52,22,22,0,0,1,6.72,15.69C85.91,49.83,85.86,52.22,85.86,54.75ZM25.64,92.12c.35-.24.55-.36.73-.5,4.69-3.49,9.39-7,14-10.5A5.58,5.58,0,0,1,44,79.93q9.36,0,18.72,0a18.09,18.09,0,0,0,3.82-.32A16.43,16.43,0,0,0,79.13,68.46a19.61,19.61,0,0,0,.78-7.78c-2.38,0-4.68.09-7,0a31.08,31.08,0,0,1-6.1-.71A22.07,22.07,0,0,1,51,45.75a21.45,21.45,0,0,1-1.35-8.06c0-2.14,0-4.28,0-6.47a5.26,5.26,0,0,0-.6-.06c-9.1,0-18.21,0-27.31,0a13.54,13.54,0,0,0-5.94,1.47C9.36,35.84,6.11,41.09,6,48.25,5.94,53.14,6,58,6,62.93A19.32,19.32,0,0,0,6.47,67,16.6,16.6,0,0,0,22.16,79.93c2.47.07,3.48,1.19,3.48,3.67C25.65,86.37,25.64,89.14,25.64,92.12Zm29.85-61c.1,3.29,0,6.44.34,9.53a16.47,16.47,0,0,0,12,13.48c3.94,1,8,.54,11.93.59,0,0,.1-.06,0,0,0-3.09.24-6.12-.05-9.1A16.36,16.36,0,0,0,67.46,31.69C63.57,30.72,59.63,31.38,55.49,31.11Z" fill="#ffffff"/></svg>