<svg xmlns="http://www.w3.org/2000/svg" width="204" height="204" viewBox="0 0 204 204"><g transform="translate(55.57 52.432)"><path d="M-837.69,5797.233c-1.524.075-1.528.075-1.526,1.572q.026,23.079.058,46.157c.01,6.062-4.044,10.162-10.09,10.143-4.735-.013-9.47-.019-14.2-.077-.908-.011-1.354.192-1.205,1.179a6.454,6.454,0,0,1,.011,1.29c-.06,1.029-.036,1.87,1.2,2.385,1.04.432,1.356,1.862,1.014,3.019a2.322,2.322,0,0,1-2.331,1.72c-.394.028-.79.011-1.183.013s-.76,0-1.175,0c.088.6.491.822.779,1.11q5.162,5.188,10.342,10.352a4.9,4.9,0,0,1,1.336,1.924,2.507,2.507,0,0,1-.557,2.691,2.5,2.5,0,0,1-2.746.712,4.163,4.163,0,0,1-1.711-1.083c-4.472-4.554-9.11-8.945-13.465-13.615-.394-.424-.583-.452-.99-.013-4.337,4.684-8.988,9.063-13.458,13.619a4.04,4.04,0,0,1-1.913,1.143,2.629,2.629,0,0,1-3.19-3.217,4.765,4.765,0,0,1,1.382-2.137q5.213-5.211,10.417-10.43a2.128,2.128,0,0,0,.779-1.058c-.811,0-1.526.021-2.238,0a2.379,2.379,0,0,1-2.51-1.778,2.632,2.632,0,0,1,1.44-3.243,1.077,1.077,0,0,0,.751-1.212,15.615,15.615,0,0,1,.02-2.15c.092-.934-.224-1.233-1.188-1.22-3.4.049-6.795.06-10.193.068a14.671,14.671,0,0,1,.461-2.419,13.85,13.85,0,0,1,1.469-3.258q21.392-.016,42.783-.006c.467,0,.934.008,1.4-.013a2.886,2.886,0,0,0,3.086-3.218c.021-3.73.006-7.46.006-11.189,0-12.158-.015-24.316.026-36.474,0-1.064-.293-1.281-1.311-1.281q-23.693.043-47.386.012a5.06,5.06,0,0,0,.045-.663c0-2.2-.192-3.995-1.657-3.995a2.132,2.132,0,0,1-.088-.385c-.028-.2-.062-.39-.1-.582,5.8,0,11.6,0,17.4.024.985,0,1.336-.256,1.248-1.249a9.191,9.191,0,0,1,.114-2.141,2.727,2.727,0,0,1,3.009-2.578,2.783,2.783,0,0,1,2.841,2.785,12.565,12.565,0,0,1,.026,2.149c-.067.814.232,1.035,1.031,1.029,4.016-.039,8.034-.018,12.05-.018q9.846,0,19.691,0c1.8,0,3,.947,3.168,2.417A2.85,2.85,0,0,1-837.69,5797.233Z" transform="translate(928.789 -5782.64)" fill="#fff"/><path d="M-894.386,5845.7a64.956,64.956,0,0,1-16.1,4.052,9.927,9.927,0,0,1-4.328-.633c-2.72-.919-5.426-1.889-8.135-2.84-1.057-.373-1.184-.322-1.242.8l0,0v2.444s.015,8.515-.058,12.77c-.017,1.083-2.947,21.5-2.959,25.632-.013,4.779-.047,9.56.019,14.34.024,1.646-.454,2.273-2.228,2.246q-10.209-.152-20.423,0c-1.692.022-2.1-.625-2.083-2.155.062-4.272.021-8.547.021-12.819,0-.435,0-.869,0-1.3-.011-4.129.83-8.5-.274-12.314-1.1-3.793-4.193-7-6.319-10.515a5.863,5.863,0,0,1-.87-2.807c-.056-4.354-.088-8.711-.069-13.069h-.006v-6.6a8.153,8.153,0,0,1,8.133-8.2,36.631,36.631,0,0,0,4.616-1.057c0,11.821,7.12,15.358,7.12,15.358s7.129-3.537,7.129-15.358a29.381,29.381,0,0,0,2.895.739l0,0c1.722.165,3.444.356,5.168.472a10.316,10.316,0,0,1,4.266,1.326,31.556,31.556,0,0,0,5.622,2.515,11.71,11.71,0,0,0,6.754.208c3.082-.861,6.168-1.7,9.253-2.548a7.557,7.557,0,0,1,2.7-.4,4.867,4.867,0,0,1,4.653,4.156A4.8,4.8,0,0,1-894.386,5845.7Z" transform="translate(959.446 -5805.577)" fill="#fff"/><path d="M-923.762,5848.017a8.257,8.257,0,0,1-1.355-6.909,4.673,4.673,0,0,0-.721-4.126c-1.033-1.383-.474-2.295,1.289-2.423a7.9,7.9,0,0,1,1.885.024c1.274.221,2.036.948,1.106,2.161a4.993,4.993,0,0,0-.859,4.493A8.251,8.251,0,0,1-923.762,5848.017Z" transform="translate(943.63 -5805.983)" fill="#fff"/><path d="M-920.277,5793.8c0,2.2-1.71,5.427-3.158,5.427a53.4,53.4,0,0,0-4.8,6.474l-.018.018c-.1.176-1.064,1.5-4.972,1.5a3.332,3.332,0,0,1-.419-.018c-3.612-.088-4.345-1.361-4.432-1.589a.052.052,0,0,1-.017-.034,62.616,62.616,0,0,0-4.606-6.352c-1.448,0-3.141-3.229-3.141-5.427s.192-4,1.657-4c0,0,.07-.436.227-1.117h.035a11.083,11.083,0,0,1,10.87-8.828,11.179,11.179,0,0,1,11.028,9.562,2.023,2.023,0,0,0,.087.384C-920.469,5789.808-920.277,5791.605-920.277,5793.8Z" transform="translate(952.943 -5779.862)" fill="#fff"/></g><g fill="none" stroke="#fff" stroke-width="5"><circle cx="102" cy="102" r="102" stroke="none"/><circle cx="102" cy="102" r="99.5" fill="none"/></g></svg>