<svg xmlns="http://www.w3.org/2000/svg" width="204" height="204" viewBox="0 0 204 204"><g transform="translate(-0.5)"><g transform="translate(68.923 52.699)"><path d="M-426.467,5845.759q0-21.081-.008-42.16c0-2.924.858-5.338,3.711-6.569a7.26,7.26,0,0,1,2.793-.513q23.871-.044,47.743.018a3.5,3.5,0,0,1,2.3.936q7.859,8.329,15.554,16.812a3.59,3.59,0,0,1,.843,2.209q.065,35.9.021,71.808c-.007,4.419-2.561,6.792-7.025,6.792-19.572,0-39.145-.08-58.716.066-4.107.03-7.276-2.493-7.249-7.239C-426.416,5873.866-426.469,5859.813-426.467,5845.759Zm52.031-44.116c-.674-.039-1.047-.08-1.421-.081-14.439,0-28.878.026-43.316-.037-1.946-.009-2.15.906-2.148,2.488q.047,41.776.025,83.551c0,2.418.047,2.462,2.5,2.462q28.781,0,57.563,0c2.547,0,2.57-.023,2.571-2.586q0-33.306,0-66.61c0-.618-.069-1.235-.114-2-3.846,0-7.555,0-11.265,0-3.852,0-4.393-.551-4.393-4.483C-374.437,5810.183-374.436,5806.019-374.436,5801.643Zm5.239,11.968h7.282l-7.282-7.878Z" transform="translate(426.497 -5796.495)" fill="#fff"/><path d="M-382.728,5843.293c-6.861,0-13.722.027-20.582-.036a3.749,3.749,0,0,1-2.38-.833c-.905-.871-.256-2.482,1.055-2.872a6.129,6.129,0,0,1,1.714-.122q20.294-.009,40.589,0c.571,0,1.315-.14,1.676.155a3.355,3.355,0,0,1,1.378,1.987c.017.54-.9,1.239-1.548,1.622-.436.256-1.126.1-1.7.1Q-372.628,5843.3-382.728,5843.293Z" transform="translate(418.294 -5813.758)" fill="#fff"/><path d="M-388.306,5816.034c5.251,0,10.5.021,15.752-.017,1.1-.008,2.072.287,2.088,1.917.016,1.657-.989,1.955-2.067,1.954q-15.679-.018-31.358,0c-1.049,0-2.054-.182-2.062-1.928s.977-1.935,2.04-1.93C-398.71,5816.043-393.508,5816.034-388.306,5816.034Z" transform="translate(418.23 -5804.351)" fill="#fff"/><path d="M-382.534,5934.276c6.861,0,13.723.021,20.584-.016,1.431-.008,2.762.235,2.8,1.866.044,1.8-1.4,2.007-2.864,2.006q-20.584-.021-41.168,0c-1.371,0-2.732-.135-2.768-1.878-.039-1.89,1.384-1.984,2.83-1.981C-396.256,5934.286-389.4,5934.276-382.534,5934.276Z" transform="translate(418.229 -5851.928)" fill="#fff"/><g transform="translate(15.024 36.664)"><path d="M-344.137,5878.118v11q0,6.784,0,13.568c0,1.019-.023,1.043-1.031,1.045-2.168,0-4.336-.019-6.5.012-.7.01-.953-.244-.951-.932.014-4.817,0-9.634.017-14.45a1.206,1.206,0,0,1,.22-.727q3.992-4.714,8.018-9.4C-344.34,5878.2-344.282,5878.186-344.137,5878.118Z" transform="translate(381.749 -5866.002)" fill="#fff"/><path d="M-366.174,5897.209c0,4.417-.007,8.726.008,13.034,0,.606-.255.788-.823.783q-3.412-.025-6.825,0c-.586,0-.832-.232-.831-.8,0-2.2-.009-4.39.015-6.584a1.6,1.6,0,0,1,.3-.8c1.361-2.048,2.756-4.075,4.1-6.131a.794.794,0,0,1,1.111-.382C-368.164,5896.665-367.181,5896.913-366.174,5897.209Z" transform="translate(390.61 -5873.293)" fill="#fff"/><path d="M-387.729,5887.969c1.112-1.651,2.2-3.267,3.287-4.881.748-1.108,1.516-2.2,2.239-3.326a1.206,1.206,0,0,1,1.562-.565c1.555.478,3.131.891,4.688,1.361a.769.769,0,0,0,.953-.271q6.23-7.345,12.489-14.669c.209-.244.418-.487.634-.725.389-.429.841-.618,1.323-.181a.866.866,0,0,1,.055,1.344q-1.931,2.256-3.851,4.522c-3.246,3.808-6.5,7.607-9.728,11.433a1.42,1.42,0,0,1-1.748.5c-1.645-.537-3.316-1-5.029-1.5l-4.168,6.189q-.784,1.165-1.568,2.328c-.654.966-1.119,1.012-1.979.185-1.658-1.595-3.311-3.193-4.98-4.8-2.041,1.667-4.049,3.312-6.062,4.949-.65.529-1.2.563-1.536.086-.446-.635-.124-1.087.384-1.5q3.108-2.539,6.206-5.09c.981-.8,1.228-.784,2.16.119C-390.861,5884.952-389.32,5886.434-387.729,5887.969Z" transform="translate(401.358 -5860.508)" fill="#fff"/><path d="M-391.319,5902.768c1.416,1.366,2.771,2.656,4.1,3.974a1.112,1.112,0,0,1,.242.718c.02,1.739-.007,3.479.019,5.218.011.715-.244.994-.987.982-2.194-.037-4.389-.033-6.583,0-.7.009-.941-.23-.929-.932.035-1.979-.006-3.96.032-5.94a1.4,1.4,0,0,1,.419-.927C-393.824,5904.818-392.6,5903.83-391.319,5902.768Z" transform="translate(398.984 -5875.92)" fill="#fff"/><path d="M-366.175,5881.092c-1.3-.384-2.469-.735-3.644-1.079a1.815,1.815,0,0,0-2.4.852c-.7,1.012-1.372,2.039-2.061,3.058-.066.1-.154.18-.365.424v-.959q0-4.975,0-9.953c0-1.32,0-1.32,1.354-1.32,2.087,0,4.174,0,6.261,0,.476,0,.858.067.856.675C-366.178,5875.513-366.175,5878.239-366.175,5881.092Z" transform="translate(390.61 -5863.585)" fill="#fff"/><path d="M-352.612,5871.2v-5.441q0-3.413,0-6.826c0-.975.1-1.072,1.04-1.074,2.168,0,4.336.017,6.5-.011.683-.008.882.234.959.926a5.639,5.639,0,0,1-1.727,4.87c-2.183,2.272-4.135,4.767-6.184,7.169-.137.161-.262.33-.393.5Z" transform="translate(381.744 -5857.845)" fill="#fff"/><path d="M-395.436,5890.747c0-2.587-.019-5.012.032-7.437a.966.966,0,0,1,.7-.635c2.329-.049,4.659-.028,6.989-.03.448,0,.72.185.72.66,0,2.538,0,5.075,0,7.838-.905-.855-1.678-1.559-2.422-2.291-1.37-1.349-1.987-1.382-3.491-.153C-393.708,5889.352-394.511,5890-395.436,5890.747Z" transform="translate(398.977 -5867.823)" fill="#fff"/></g></g><g transform="translate(0.5)" fill="none" stroke="#fff" stroke-width="5"><circle cx="102" cy="102" r="102" stroke="none"/><circle cx="102" cy="102" r="99.5" fill="none"/></g></g></svg>