<svg xmlns="http://www.w3.org/2000/svg" width="204" height="204" viewBox="0 0 204 204"><g transform="translate(-0.5)"><g transform="translate(51.84 52.39)"><g transform="translate(38.057 14.956)"><path d="M99.536,5846.271a1.245,1.245,0,0,1-.179,1.969,1.274,1.274,0,0,1-1.759-.334,13.283,13.283,0,0,1-.985-17.305c.462-.592,1-1.126,1.471-1.653h1.052c.64.481.917.9.776,1.375a2.667,2.667,0,0,1-.562.958,10.814,10.814,0,0,0,.187,14.991Z" transform="translate(-93.871 -5828.948)" fill="#fff"/><path d="M101.763,5839.255a10.319,10.319,0,0,1,2.926-6.628,1.327,1.327,0,0,1,1.964-.215,1.313,1.313,0,0,1-.08,1.931,8.044,8.044,0,0,0-1.228,9.607,10.06,10.06,0,0,0,1.225,1.667,1.355,1.355,0,0,1,.088,1.937,1.387,1.387,0,0,1-1.977-.217A11.2,11.2,0,0,1,101.763,5839.255Z" transform="translate(-97.17 -5830.252)" fill="#fff"/><path d="M109.737,5841.219a7.433,7.433,0,0,1,2.153-5.007,1.271,1.271,0,1,1,1.841,1.747,5.061,5.061,0,0,0-.027,7.106,1.27,1.27,0,0,1,.317,1.489,1.12,1.12,0,0,1-1.175.735,1.752,1.752,0,0,1-.938-.456A7.647,7.647,0,0,1,109.737,5841.219Z" transform="translate(-100.503 -5831.794)" fill="#fff"/><path d="M143.173,5845.091a5.079,5.079,0,0,0-.018-7.146,1.269,1.269,0,1,1,1.826-1.758,7.594,7.594,0,0,1,.037,10.633,1.244,1.244,0,0,1-1.84.158A1.264,1.264,0,0,1,143.173,5845.091Z" transform="translate(-114.305 -5831.792)" fill="#fff"/><path d="M134.164,5883.767q-4.239-12.188-8.5-24.369c-1.418-4.06-2.831-8.122-4.267-12.176-.143-.4-.006-.536.3-.719a5.519,5.519,0,0,0,2.439-6.593,5.579,5.579,0,0,0-10.731.629,5.5,5.5,0,0,0,2.592,5.938c.4.233.448.424.3.849q-2.9,8.228-5.762,16.471-3.547,10.152-7.1,20.3c-.288.822-.068,1.318.849,1.854h.687l5.718-3.549q3.907-2.425,7.812-4.854a.534.534,0,0,1,.663-.049c4.488,2.8,8.985,5.591,13.591,8.453h.946a3.347,3.347,0,0,0,.645-1A2.332,2.332,0,0,0,134.164,5883.767Zm-8.73-17.3-.11.073-4.836-5.263,2.263-2.489C123.671,5861.418,124.552,5863.941,125.434,5866.466Zm-9.3-11.063c.878-2.38,1.695-4.78,2.536-7.173.048-.133.1-.266.207-.544.728,2.088,1.4,4.031,2.082,5.971.261.747.537,1.487.782,2.239a.584.584,0,0,1-.056.479c-.92,1.032-1.859,2.046-2.834,3.107-.822-.892-1.591-1.79-2.432-2.613A1.181,1.181,0,0,1,116.13,5855.4Zm-1.173,3.428,2.252,2.442-4.815,5.263-.105-.061C113.165,5863.965,114.042,5861.455,114.956,5858.831Zm-7.906,22.987-.1-.067,3.392-9.719,6.229,3.872Zm11.6-7.477c-2.137-1.307-4.261-2.634-6.455-4l6.651-7.278c2.226,2.423,4.429,4.824,6.684,7.282-.915.569-1.766,1.1-2.619,1.629-1.247.773-2.491,1.551-3.747,2.309A.609.609,0,0,1,118.653,5874.341Zm12.015,7.471-9.509-5.907,6.222-3.871,3.384,9.678Z" transform="translate(-97.819 -5831.954)" fill="#fff"/><path d="M149.676,5834.33a1.323,1.323,0,0,1-.3-1.62,1.221,1.221,0,0,1,1.4-.595,1.778,1.778,0,0,1,.736.46,11.013,11.013,0,0,1,2.987,8.074,10.328,10.328,0,0,1-2.968,6.736,1.337,1.337,0,0,1-1.936.147,1.3,1.3,0,0,1,.085-1.893A8.1,8.1,0,0,0,149.676,5834.33Z" transform="translate(-117.006 -5830.252)" fill="#fff"/><path d="M161.547,5841.409a12.626,12.626,0,0,1-3.595,6.646,1.233,1.233,0,0,1-1.812.022,1.261,1.261,0,0,1,0-1.783c.066-.075.14-.141.206-.216a10.6,10.6,0,0,0,2.632-9.949,10.461,10.461,0,0,0-2.774-5,1.25,1.25,0,0,1,.175-2.035c.052-.04.1-.09.16-.148h.968c.2.159.352.269.488.4a5.618,5.618,0,0,1,.411.429A13.113,13.113,0,0,1,161.547,5841.409Z" transform="translate(-119.741 -5828.948)" fill="#fff"/></g><path d="M31.185,5899.988a8.343,8.343,0,0,0,11.7-.339c8.261-8.128,5.412-4.68,13.468-13,1.329-1.373,2.717-3.77,2.436-5.414-.687-4.068-2.189-1.706.394-3.973l.049-.04q1.914,1.586,3.867,3a42.035,42.035,0,1,0-9.925-9.265c.348.438.7.869,1.07,1.3l-.013.014c-2.226,2.618-.14.849-4.2.251-1.673-.246-4.037,1.11-5.406,2.439-8.32,8.061-5.425,4.657-13.553,12.918A8.243,8.243,0,0,0,31.185,5899.988Zm54.807-89.341a34.344,34.344,0,1,1-34.773,34.342A34.56,34.56,0,0,1,85.992,5810.647Z" transform="translate(-28.481 -5803.249)" fill="#fff"/></g><g transform="translate(0.5)" fill="none" stroke="#fff" stroke-width="5"><circle cx="102" cy="102" r="102" stroke="none"/><circle cx="102" cy="102" r="99.5" fill="none"/></g></g></svg>